<?xml version="1.0" encoding="utf-8"?>
<!-- Generator: Adobe Illustrator 16.0.0, SVG Export Plug-In . SVG Version: 6.00 Build 0)  -->
<!DOCTYPE svg PUBLIC "-//W3C//DTD SVG 1.1//EN" "http://www.w3.org/Graphics/SVG/1.1/DTD/svg11.dtd">
<svg version="1.1" id="drive" xmlns="http://www.w3.org/2000/svg" xmlns:xlink="http://www.w3.org/1999/xlink" x="0px" y="0px"
	 width="24px" height="24px" viewBox="0 0 24 24" enable-background="new 0 0 24 24" xml:space="preserve">
<g>
	<circle fill="#328CA0" cx="12" cy="12" r="12"/>
	<path fill="#FFFFFF" d="M5.087,14.653l7.78,1.708c0.06,0.012,0.121,0.003,0.176-0.027l7.014-3.948
		c0.122-0.069,0.164-0.221,0.096-0.341c-0.068-0.121-0.222-0.163-0.34-0.096l-6.933,3.904l-7.708-1.694
		c-0.01-0.002-0.018-0.004-0.028-0.005c-0.512-0.076-0.832-0.472-0.832-1.038c0-0.561,0.347-1.018,0.774-1.037l3.779,0.831
		c0.136,0.029,0.269-0.055,0.298-0.19c0.029-0.137-0.055-0.27-0.189-0.299L5.17,11.586c-0.009-0.004-0.018-0.004-0.028-0.004
		C4.63,11.506,4.31,11.109,4.31,10.543c0-0.511,0.286-0.935,0.66-1.021l7.897,1.694c0.016,0.004,0.033,0.006,0.052,0.006
		c0.041,0,0.084-0.012,0.123-0.032l7.013-3.949c0.091-0.051,0.138-0.15,0.127-0.252c-0.016-0.103-0.092-0.187-0.195-0.208
		l-7.805-1.715c-0.059-0.014-0.121-0.003-0.174,0.024L4.804,9.041C4.791,9.048,4.777,9.057,4.767,9.066
		c-0.548,0.18-0.953,0.774-0.953,1.479c0,0.552,0.224,1.002,0.604,1.274c-0.361,0.272-0.604,0.75-0.604,1.296
		c0,0.551,0.224,1.006,0.604,1.274c-0.361,0.274-0.604,0.751-0.604,1.295c0,0.819,0.492,1.422,1.255,1.533l7.799,1.711
		c0.018,0.008,0.035,0.009,0.054,0.009c0.041,0,0.084-0.012,0.122-0.032l7.014-3.949c0.121-0.067,0.164-0.218,0.096-0.339
		c-0.067-0.119-0.221-0.163-0.341-0.095l-6.931,3.902l-7.714-1.694c-0.006-0.004-0.012-0.004-0.018-0.004
		c-0.515-0.075-0.835-0.472-0.835-1.041C4.312,15.127,4.658,14.67,5.087,14.653z M11.598,7.486l1.73-0.568l0.679,0.174l0.026,0.933
		L13.27,8.389l-1.8-0.364L11.598,7.486z M20.152,9.475c0.068,0.122,0.026,0.274-0.096,0.341l-7.014,3.947
		c-0.037,0.023-0.083,0.031-0.124,0.031c-0.016,0-0.035-0.003-0.052-0.006l-1.721-0.377c-0.135-0.031-0.22-0.165-0.192-0.299
		c0.03-0.136,0.164-0.22,0.299-0.189l1.626,0.357l6.933-3.902C19.931,9.314,20.084,9.356,20.152,9.475z M9.432,13.954v-2.611
		l1.227,0.205v2.753l-0.645-0.709L9.432,13.954z M13.312,7.348l-0.021,0.514L12.43,7.67L13.312,7.348z"/>
</g>
</svg>
