<?xml version="1.0" encoding="utf-8"?>
<!-- Generator: Adobe Illustrator 16.0.0, SVG Export Plug-In . SVG Version: 6.00 Build 0)  -->
<!DOCTYPE svg PUBLIC "-//W3C//DTD SVG 1.1//EN" "http://www.w3.org/Graphics/SVG/1.1/DTD/svg11.dtd">
<svg version="1.1" id="drive" xmlns="http://www.w3.org/2000/svg" xmlns:xlink="http://www.w3.org/1999/xlink" x="0px" y="0px"
	 width="24px" height="24px" viewBox="0 0 24 24" enable-background="new 0 0 24 24" xml:space="preserve">
<path fill="#328CA0" d="M12,0C5.373,0,0,5.373,0,12c0,6.627,5.373,12,12,12c6.627,0,12-5.373,12-12C24,5.373,18.627,0,12,0z
	 M20.055,7.241l-7.013,3.949c-0.039,0.02-0.082,0.032-0.123,0.032c-0.019,0-0.036-0.002-0.052-0.006L4.97,9.522
	c-0.374,0.086-0.66,0.51-0.66,1.021c0,0.566,0.32,0.963,0.832,1.039c0.01,0,0.019,0,0.028,0.004l3.804,0.835
	c0.134,0.029,0.218,0.162,0.189,0.3c-0.029,0.135-0.162,0.219-0.298,0.189l-3.779-0.831c-0.427,0.019-0.774,0.476-0.774,1.037
	c0,0.565,0.32,0.962,0.832,1.038c0.01,0,0.018,0.003,0.028,0.005l7.708,1.694l6.933-3.904c0.119-0.067,0.272-0.025,0.34,0.096
	c0.068,0.12,0.027,0.272-0.096,0.341l-7.014,3.948c-0.055,0.029-0.115,0.039-0.176,0.027l-7.78-1.709
	c-0.429,0.018-0.775,0.475-0.772,1.033c0,0.568,0.32,0.965,0.835,1.041c0.006,0,0.012,0,0.018,0.004l7.714,1.693l6.931-3.902
	c0.121-0.067,0.274-0.023,0.342,0.096c0.068,0.121,0.025,0.271-0.096,0.339l-7.015,3.948c-0.038,0.021-0.081,0.033-0.122,0.033
	c-0.02,0-0.035-0.002-0.054-0.01l-7.799-1.711c-0.763-0.111-1.255-0.714-1.255-1.533c0-0.543,0.243-1.021,0.604-1.295
	c-0.38-0.268-0.604-0.723-0.604-1.273c0-0.547,0.243-1.024,0.604-1.296c-0.38-0.272-0.604-0.722-0.604-1.274
	c0-0.705,0.405-1.299,0.953-1.479c0.01-0.009,0.024-0.018,0.037-0.025l7.204-3.951c0.053-0.027,0.115-0.038,0.174-0.024l7.804,1.715
	c0.104,0.021,0.18,0.105,0.195,0.208C20.193,7.091,20.146,7.19,20.055,7.241z M20.057,9.816l-7.015,3.948
	c-0.037,0.022-0.083,0.03-0.124,0.03c-0.016,0-0.035-0.003-0.052-0.006l-1.721-0.377c-0.135-0.031-0.22-0.165-0.192-0.3
	c0.03-0.135,0.164-0.219,0.299-0.188l1.626,0.356l6.933-3.901c0.121-0.064,0.273-0.022,0.342,0.097
	C20.221,9.597,20.178,9.749,20.057,9.816z M10.659,11.548v2.753l-0.645-0.709l-0.582,0.362v-2.611L10.659,11.548z M13.328,6.918
	l-1.73,0.568L11.47,8.025l1.799,0.364l0.764-0.364l-0.026-0.933L13.328,6.918z M13.291,7.862L12.43,7.67l0.882-0.322L13.291,7.862z"
	/>
</svg>
