<?xml version="1.0" encoding="utf-8"?>
<!-- Generator: Adobe Illustrator 16.0.0, SVG Export Plug-In . SVG Version: 6.00 Build 0)  -->
<!DOCTYPE svg PUBLIC "-//W3C//DTD SVG 1.1//EN" "http://www.w3.org/Graphics/SVG/1.1/DTD/svg11.dtd">
<svg version="1.1" id="trashbin" xmlns="http://www.w3.org/2000/svg" xmlns:xlink="http://www.w3.org/1999/xlink" x="0px" y="0px"
	 width="10px" height="13px" viewBox="1.5 0 10 13" enable-background="new 1.5 0 10 13" xml:space="preserve">
<path fill="#328CA0" d="M1.893,3.558l0.03,0.029c0.125,0.119,0.309,0.341,0.309,0.44v7.881c0,0.604,0.53,1.092,1.181,1.092h6.17
	c0.653,0,1.183-0.488,1.183-1.092V4.027c0-0.1,0.186-0.321,0.311-0.44l0.029-0.029V2.414H1.893V3.558z M4.851,10.656H4.046V4.66
	h0.805V10.656z M6.098,10.656V4.66h0.805v5.996l0,0H6.098z M8.146,10.656V4.66h0.808v5.996H8.146z M8.982,1.157
	c-0.17-0.658-0.809-1.128-1.551-1.128H5.566c-0.741,0-1.378,0.47-1.547,1.128H1.5v0.808h10V1.157H8.982z M8.066,1.255H4.935
	c0.103-0.229,0.348-0.387,0.633-0.387h1.865C7.718,0.868,7.964,1.027,8.066,1.255z"/>
</svg>
