<?xml version="1.0" encoding="utf-8"?>
<!-- Generator: Adobe Illustrator 16.0.0, SVG Export Plug-In . SVG Version: 6.00 Build 0)  -->
<!DOCTYPE svg PUBLIC "-//W3C//DTD SVG 1.1//EN" "http://www.w3.org/Graphics/SVG/1.1/DTD/svg11.dtd">
<svg version="1.1" id="flash" xmlns="http://www.w3.org/2000/svg" xmlns:xlink="http://www.w3.org/1999/xlink" x="0px" y="0px"
	 width="24px" height="24px" viewBox="0 0 24 24" enable-background="new 0 0 24 24" xml:space="preserve">
<path fill="#328CA0" d="M12,0C5.373,0,0,5.372,0,12c0,6.627,5.373,12,12,12c6.627,0,12-5.373,12-12C24,5.372,18.627,0,12,0z
	 M5.969,11.438l7.24-6.481l-6.154,6.473l3.263,2.31l-2.32,5.686l1.558-5.333L5.969,11.438z M11.129,13.357L8.09,11.229l7.489-7.839
	l-2.767,7.01l3.099,2.117l-7.723,8.092L11.129,13.357z M10.235,19.6l6.585-7.235l-3.157-2.338l1.967-5.055l-1.188,4.765l3.588,2.685
	L10.235,19.6z"/>
</svg>
