<?xml version="1.0" encoding="utf-8"?>
<!-- Generator: Adobe Illustrator 16.0.0, SVG Export Plug-In . SVG Version: 6.00 Build 0)  -->
<!DOCTYPE svg PUBLIC "-//W3C//DTD SVG 1.1//EN" "http://www.w3.org/Graphics/SVG/1.1/DTD/svg11.dtd">
<svg version="1.1" id="mail" xmlns="http://www.w3.org/2000/svg" xmlns:xlink="http://www.w3.org/1999/xlink" x="0px" y="0px"
	 width="24px" height="24px" viewBox="0 0 24 24" enable-background="new 0 0 24 24" xml:space="preserve">
<g>
	<circle fill="#328CA0" cx="12" cy="12" r="12"/>
	<path fill="#FFFFFF" d="M18.234,6.757H18.07h-0.791H6.723H5.93H5.767c-0.359,0-0.649,0.291-0.649,0.649v0.3v8.589v0.299
		c0,0.358,0.29,0.649,0.649,0.649H5.93h0.793h10.557h0.791h0.164c0.357,0,0.648-0.291,0.648-0.649v-0.299V7.706v-0.3
		C18.883,7.048,18.592,6.757,18.234,6.757z M7.396,7.577h9.206c0.173,0,0.326,0.072,0.445,0.183l-5.049,3.452L6.951,7.76
		C7.07,7.649,7.223,7.577,7.396,7.577z M17.275,15.723v0.01c-0.006,0.382-0.305,0.691-0.674,0.691H7.396
		c-0.371,0-0.672-0.313-0.675-0.695V9.684l5.277,3.61l5.277-3.608V15.723z"/>
</g>
</svg>
