<?xml version="1.0" encoding="utf-8"?>
<!-- Generator: Adobe Illustrator 16.0.0, SVG Export Plug-In . SVG Version: 6.00 Build 0)  -->
<!DOCTYPE svg PUBLIC "-//W3C//DTD SVG 1.1//EN" "http://www.w3.org/Graphics/SVG/1.1/DTD/svg11.dtd">
<svg version="1.1" id="mail" xmlns="http://www.w3.org/2000/svg" xmlns:xlink="http://www.w3.org/1999/xlink" x="0px" y="0px"
	 width="24px" height="24px" viewBox="0 0 24 24" enable-background="new 0 0 24 24" xml:space="preserve">
<path fill="#328CA0" d="M12,0C5.373,0,0,5.373,0,12c0,6.627,5.373,12,12,12c6.627,0,12-5.373,12-12C24,5.373,18.627,0,12,0z
	 M18.883,7.706v8.589v0.299c0,0.358-0.291,0.649-0.648,0.649H18.07h-0.791H6.723H5.93H5.767c-0.359,0-0.649-0.291-0.649-0.649
	v-0.299V7.706v-0.3c0-0.358,0.29-0.649,0.649-0.649H5.93h0.793h10.556h0.791h0.164c0.357,0,0.648,0.291,0.648,0.649V7.706z
	 M11.998,13.294l5.277-3.608v6.037v0.01c-0.006,0.383-0.305,0.691-0.674,0.691H7.396c-0.371,0-0.672-0.313-0.675-0.695V9.684
	L11.998,13.294z M11.998,11.212L6.951,7.76C7.07,7.649,7.223,7.577,7.396,7.577h9.206c0.174,0,0.326,0.072,0.445,0.183
	L11.998,11.212z"/>
</svg>
