<?xml version="1.0" encoding="utf-8"?>
<!-- Generator: Adobe Illustrator 16.0.0, SVG Export Plug-In . SVG Version: 6.00 Build 0)  -->
<!DOCTYPE svg PUBLIC "-//W3C//DTD SVG 1.1//EN" "http://www.w3.org/Graphics/SVG/1.1/DTD/svg11.dtd">
<svg version="1.1" id="name" xmlns="http://www.w3.org/2000/svg" xmlns:xlink="http://www.w3.org/1999/xlink" x="0px" y="0px"
	 width="164.868px" height="16.764px" viewBox="0 0 164.868 16.764" enable-background="new 0 0 164.868 16.764"
	 xml:space="preserve">
<path fill="#328CA0" d="M2.29,7.277h1.054c0.662,0,1.183-0.074,1.561-0.223c0.378-0.149,0.648-0.409,0.811-0.78
	c0.162-0.372,0.243-0.896,0.243-1.571c0-0.783-0.058-1.385-0.172-1.804c-0.115-0.419-0.354-0.71-0.72-0.872
	C4.701,1.865,4.134,1.784,3.364,1.784H2.29V7.277z M-0.001,16.56V0.142h4.074c0.986,0,1.773,0.18,2.361,0.537
	C7.022,1.038,7.451,1.554,7.722,2.23s0.405,1.493,0.405,2.452c0,0.864-0.152,1.614-0.456,2.25c-0.304,0.636-0.753,1.125-1.348,1.47
	C5.728,8.747,4.985,8.918,4.094,8.918H2.29v7.643H-0.001z M10.45,0.142h2.25V16.56h-2.25V0.142z M17.76,16.56V1.845h-2.776V0.142
	h7.763v1.703h-2.695V16.56H17.76z M24.928,16.56V0.142h6.364v1.703h-4.074v5.432h3.304v1.621h-3.304v6.021h4.114v1.643L24.928,16.56
	L24.928,16.56z M36.068,7.216h0.871c0.648,0,1.176-0.08,1.581-0.242s0.702-0.439,0.892-0.831c0.19-0.393,0.284-0.939,0.284-1.643
	c0-0.96-0.176-1.651-0.527-2.078c-0.351-0.426-1.047-0.639-2.088-0.639h-1.013V7.216z M33.777,16.56V0.142h3.304
	c1.095,0,2,0.146,2.716,0.436c0.717,0.291,1.247,0.757,1.592,1.399c0.345,0.642,0.517,1.481,0.517,2.522
	c0,0.636-0.067,1.212-0.203,1.732c-0.135,0.521-0.351,0.96-0.648,1.316c-0.297,0.358-0.688,0.618-1.175,0.78l2.33,8.229h-2.209
	l-2.148-7.702H36.07v7.702h-2.293V16.56z M48.769,16.743c-0.945,0-1.732-0.203-2.361-0.607c-0.628-0.405-1.104-0.967-1.429-1.684
	c-0.324-0.716-0.514-1.547-0.567-2.492l2.027-0.548c0.04,0.581,0.131,1.143,0.273,1.684c0.142,0.54,0.375,0.981,0.699,1.326
	c0.324,0.346,0.776,0.519,1.357,0.519c0.595,0,1.044-0.166,1.349-0.497c0.304-0.331,0.456-0.808,0.456-1.429
	c0-0.743-0.169-1.343-0.507-1.794c-0.338-0.453-0.764-0.909-1.277-1.368l-2.757-2.434c-0.54-0.473-0.938-0.988-1.195-1.55
	c-0.257-0.562-0.385-1.254-0.385-2.078c0-1.202,0.344-2.135,1.033-2.797S47.113,0,48.303,0c0.648,0,1.22,0.084,1.713,0.253
	c0.493,0.169,0.905,0.431,1.236,0.78c0.331,0.353,0.595,0.794,0.79,1.328c0.196,0.533,0.328,1.158,0.396,1.875l-1.945,0.526
	c-0.041-0.54-0.122-1.037-0.243-1.489c-0.122-0.453-0.335-0.817-0.639-1.095c-0.305-0.277-0.74-0.415-1.308-0.415
	c-0.568,0-1.01,0.15-1.327,0.456c-0.319,0.305-0.477,0.754-0.477,1.349c0,0.5,0.084,0.912,0.253,1.236
	c0.169,0.323,0.442,0.654,0.821,0.992l2.776,2.434c0.622,0.54,1.169,1.186,1.642,1.936c0.474,0.75,0.71,1.639,0.71,2.665
	c0,0.812-0.169,1.51-0.507,2.099c-0.338,0.588-0.801,1.036-1.389,1.348C50.218,16.587,49.539,16.743,48.769,16.743z M59.281,14.939
	c0.607,0,1.067-0.125,1.378-0.375s0.521-0.603,0.628-1.056c0.108-0.451,0.162-0.981,0.162-1.591V4.723
	c0-0.608-0.054-1.133-0.162-1.571c-0.107-0.438-0.317-0.776-0.628-1.013c-0.311-0.237-0.771-0.355-1.378-0.355
	c-0.608,0-1.071,0.118-1.389,0.355c-0.317,0.235-0.53,0.573-0.639,1.013c-0.108,0.438-0.162,0.963-0.162,1.571v7.194
	c0,0.608,0.054,1.14,0.162,1.591c0.108,0.453,0.321,0.806,0.639,1.056S58.673,14.939,59.281,14.939z M59.281,16.743
	c-1.108,0-1.993-0.217-2.655-0.647c-0.662-0.434-1.136-1.052-1.419-1.855c-0.284-0.804-0.426-1.746-0.426-2.827V5.189
	c0-1.081,0.146-2.01,0.436-2.787c0.291-0.776,0.764-1.371,1.419-1.783C57.291,0.207,58.173,0,59.281,0
	c1.107,0,1.986,0.209,2.635,0.628s1.118,1.015,1.408,1.784c0.291,0.771,0.437,1.695,0.437,2.776v6.243c0,1.066-0.146,2-0.437,2.797
	c-0.29,0.797-0.76,1.416-1.408,1.854C61.268,16.523,60.389,16.743,59.281,16.743z M66.61,16.56V0.142h1.562l4.661,10.904V0.142
	h1.905V16.56h-1.459L68.557,5.351V16.56H66.61z M83.156,16.56V0.142h2.289v7.095h4.217V0.142h2.291V16.56h-2.291V8.878h-4.217v7.683
	H83.156z M97.478,10.784h2.736l-1.379-7.397L97.478,10.784z M94.234,16.56L97.72,0.142h2.21l3.506,16.418h-2.168l-0.75-4.136h-3.345
	l-0.791,4.136H94.234z M109.531,16.763c-1.027,0-1.849-0.221-2.464-0.659c-0.614-0.439-1.062-1.078-1.338-1.915
	c-0.276-0.838-0.415-1.845-0.415-3.021V5.675c0-1.201,0.125-2.226,0.375-3.069s0.695-1.49,1.338-1.937
	C107.669,0.223,108.564,0,109.712,0c1.027,0,1.854,0.172,2.482,0.518c0.629,0.345,1.086,0.872,1.368,1.581
	c0.284,0.71,0.427,1.604,0.427,2.686v0.608h-2.148V4.885c0-0.717-0.047-1.302-0.143-1.754c-0.095-0.452-0.287-0.791-0.578-1.014
	c-0.289-0.223-0.746-0.335-1.367-0.335c-0.676,0-1.166,0.156-1.469,0.467c-0.306,0.312-0.494,0.732-0.568,1.268
	c-0.074,0.533-0.111,1.139-0.111,1.813v6.08c0,0.784,0.059,1.439,0.173,1.966c0.114,0.527,0.334,0.919,0.658,1.177
	c0.323,0.257,0.784,0.386,1.379,0.386s1.054-0.144,1.378-0.426c0.324-0.284,0.547-0.703,0.669-1.258
	c0.121-0.554,0.183-1.242,0.183-2.066v-1.135h-2.088V8.432h4.155v8.128h-1.438l-0.223-1.886c-0.218,0.607-0.556,1.107-1.015,1.5
	S110.341,16.763,109.531,16.763z M117.062,16.56V0.142h6.363v1.703h-4.072v5.432h3.305v1.621h-3.305v6.021h4.113v1.643
	L117.062,16.56L117.062,16.56z M125.915,16.56V0.142h2.289v14.775h4.195v1.643H125.915z M136.913,10.784h2.734l-1.377-7.397
	L136.913,10.784z M133.668,16.56l3.486-16.418h2.209l3.508,16.418h-2.17l-0.75-4.136h-3.344l-0.791,4.136H133.668z M145.133,16.56
	V0.142h1.561l4.662,10.904V0.142h1.906V16.56h-1.461l-4.723-11.209V16.56H145.133z M158.727,14.918h1.297
	c0.838,0,1.434-0.162,1.783-0.485c0.352-0.324,0.564-0.799,0.639-1.419c0.074-0.622,0.111-1.372,0.111-2.25V5.432
	c0-0.852-0.055-1.54-0.162-2.067c-0.107-0.526-0.344-0.912-0.709-1.155s-0.938-0.363-1.723-0.363h-1.236V14.918L158.727,14.918z
	 M156.436,16.56V0.142h3.568c1.215,0,2.178,0.186,2.887,0.558c0.711,0.371,1.217,0.929,1.521,1.672s0.457,1.669,0.457,2.777v6.04
	c0,1.162-0.152,2.142-0.457,2.938c-0.305,0.798-0.797,1.402-1.479,1.814s-1.598,0.618-2.748,0.618L156.436,16.56L156.436,16.56z"/>
</svg>
