<?xml version="1.0" encoding="utf-8"?>
<!-- Generator: Adobe Illustrator 16.0.0, SVG Export Plug-In . SVG Version: 6.00 Build 0)  -->
<!DOCTYPE svg PUBLIC "-//W3C//DTD SVG 1.1//EN" "http://www.w3.org/Graphics/SVG/1.1/DTD/svg11.dtd">
<svg version="1.1" id="name" xmlns="http://www.w3.org/2000/svg" xmlns:xlink="http://www.w3.org/1999/xlink" x="0px" y="0px"
	 width="164.868px" height="16.763px" viewBox="0 0 164.868 16.763" enable-background="new 0 0 164.868 16.763"
	 xml:space="preserve">
<path fill="#328CA0" d="M2.291,7.277h1.054c0.662,0,1.183-0.074,1.561-0.223s0.648-0.409,0.811-0.78
	c0.162-0.372,0.243-0.896,0.243-1.571c0-0.783-0.058-1.385-0.172-1.804c-0.115-0.419-0.354-0.71-0.72-0.872S4.135,1.784,3.365,1.784
	H2.291V7.277z M0,16.56V0.142h4.074c0.986,0,1.773,0.18,2.361,0.537C7.023,1.038,7.452,1.554,7.723,2.23s0.405,1.493,0.405,2.452
	c0,0.865-0.152,1.615-0.456,2.25c-0.304,0.636-0.753,1.125-1.348,1.47S4.986,8.918,4.095,8.918H2.291v7.642H0z M10.451,0.142h2.25
	V16.56h-2.25V0.142z M17.761,16.56V1.845h-2.776V0.142h7.763v1.703h-2.695V16.56H17.761z M24.929,16.56V0.142h6.364v1.703h-4.074
	v5.432h3.304v1.621h-3.304v6.021h4.114v1.642H24.929z M36.069,7.216h0.871c0.648,0,1.176-0.081,1.581-0.243s0.702-0.439,0.892-0.831
	s0.284-0.939,0.284-1.642c0-0.96-0.176-1.652-0.527-2.078s-1.047-0.639-2.088-0.639h-1.013V7.216z M33.778,16.56V0.142h3.304
	c1.095,0,2,0.146,2.716,0.436c0.717,0.291,1.247,0.757,1.592,1.399c0.345,0.642,0.517,1.482,0.517,2.523
	c0,0.635-0.067,1.212-0.203,1.732c-0.135,0.521-0.351,0.96-0.648,1.317c-0.297,0.358-0.688,0.618-1.175,0.78l2.33,8.229h-2.209
	l-2.148-7.702h-1.783v7.702H33.778z M48.77,16.743c-0.945,0-1.732-0.203-2.361-0.608c-0.628-0.405-1.104-0.966-1.429-1.683
	c-0.324-0.716-0.514-1.547-0.567-2.492l2.027-0.548c0.04,0.581,0.131,1.142,0.273,1.683c0.142,0.54,0.375,0.982,0.699,1.327
	s0.776,0.518,1.357,0.518c0.595,0,1.044-0.166,1.349-0.497c0.304-0.331,0.456-0.808,0.456-1.429c0-0.743-0.169-1.342-0.507-1.794
	c-0.338-0.453-0.764-0.909-1.277-1.368l-2.757-2.433c-0.54-0.473-0.938-0.989-1.195-1.55c-0.257-0.562-0.385-1.254-0.385-2.078
	c0-1.202,0.344-2.135,1.033-2.797S47.114,0,48.304,0c0.648,0,1.22,0.084,1.713,0.253s0.905,0.43,1.236,0.78
	c0.331,0.352,0.595,0.794,0.79,1.328c0.196,0.533,0.328,1.158,0.396,1.875l-1.945,0.526c-0.041-0.54-0.122-1.037-0.243-1.489
	c-0.122-0.453-0.335-0.817-0.639-1.095c-0.305-0.277-0.74-0.415-1.308-0.415s-1.01,0.151-1.327,0.456
	C46.658,2.524,46.5,2.973,46.5,3.568c0,0.5,0.084,0.912,0.253,1.236s0.442,0.655,0.821,0.993l2.776,2.433
	c0.622,0.54,1.169,1.186,1.642,1.936c0.474,0.75,0.71,1.638,0.71,2.665c0,0.811-0.169,1.51-0.507,2.098s-0.801,1.037-1.389,1.348
	C50.219,16.587,49.54,16.743,48.77,16.743z M59.282,14.939c0.607,0,1.067-0.125,1.378-0.375s0.521-0.602,0.628-1.055
	c0.108-0.452,0.162-0.982,0.162-1.591V4.723c0-0.608-0.054-1.132-0.162-1.571c-0.107-0.438-0.317-0.776-0.628-1.013
	c-0.311-0.237-0.771-0.355-1.378-0.355c-0.608,0-1.071,0.118-1.389,0.355c-0.317,0.236-0.53,0.574-0.639,1.013
	c-0.108,0.439-0.162,0.963-0.162,1.571v7.195c0,0.608,0.054,1.139,0.162,1.591c0.108,0.453,0.321,0.805,0.639,1.055
	S58.674,14.939,59.282,14.939z M59.282,16.743c-1.108,0-1.993-0.217-2.655-0.648c-0.662-0.433-1.136-1.051-1.419-1.855
	c-0.284-0.804-0.426-1.746-0.426-2.827V5.189c0-1.081,0.146-2.01,0.436-2.787c0.291-0.776,0.764-1.371,1.419-1.783
	S58.174,0,59.282,0c1.107,0,1.986,0.209,2.635,0.628s1.118,1.014,1.408,1.784c0.291,0.771,0.437,1.695,0.437,2.776v6.243
	c0,1.067-0.146,2-0.437,2.797c-0.29,0.797-0.76,1.416-1.408,1.854C61.269,16.523,60.39,16.743,59.282,16.743z M66.611,16.56V0.142
	h1.562l4.661,10.905V0.142h1.905V16.56H73.28L68.558,5.351V16.56H66.611z M83.156,16.56V0.142h2.29v7.095h4.216V0.142h2.291V16.56
	h-2.291V8.878h-4.216v7.682H83.156z M97.479,10.784h2.736l-1.378-7.398L97.479,10.784z M94.235,16.56l3.486-16.418h2.21
	l3.506,16.418h-2.168l-0.75-4.135h-3.345l-0.79,4.135H94.235z M109.531,16.763c-1.027,0-1.848-0.22-2.463-0.659
	c-0.614-0.439-1.061-1.078-1.338-1.915c-0.276-0.838-0.415-1.845-0.415-3.021V5.675c0-1.202,0.125-2.226,0.375-3.07
	s0.695-1.49,1.338-1.936C107.67,0.223,108.565,0,109.714,0c1.026,0,1.854,0.172,2.482,0.517c0.629,0.345,1.085,0.872,1.368,1.581
	c0.284,0.71,0.426,1.604,0.426,2.686v0.608h-2.148V4.885c0-0.716-0.047-1.301-0.142-1.753c-0.095-0.453-0.287-0.791-0.578-1.014
	c-0.29-0.223-0.746-0.335-1.368-0.335c-0.676,0-1.165,0.156-1.469,0.467c-0.305,0.311-0.493,0.732-0.568,1.267
	c-0.074,0.534-0.111,1.139-0.111,1.814v6.08c0,0.784,0.058,1.439,0.173,1.966c0.114,0.527,0.334,0.919,0.658,1.176
	s0.784,0.386,1.379,0.386c0.594,0,1.054-0.143,1.378-0.426c0.324-0.284,0.547-0.703,0.669-1.257
	c0.121-0.554,0.183-1.243,0.183-2.067v-1.135h-2.088V8.432h4.155v8.128h-1.439l-0.223-1.885c-0.217,0.607-0.555,1.107-1.014,1.5
	C110.978,16.567,110.342,16.763,109.531,16.763z M117.063,16.56V0.142h6.364v1.703h-4.073v5.432h3.304v1.621h-3.304v6.021h4.114
	v1.642H117.063z M125.914,16.56V0.142h2.29v14.776h4.195v1.642H125.914z M136.912,10.784h2.736l-1.378-7.398L136.912,10.784z
	 M133.669,16.56l3.486-16.418h2.209l3.507,16.418h-2.169l-0.75-4.135h-3.344l-0.791,4.135H133.669z M145.134,16.56V0.142h1.561
	l4.662,10.905V0.142h1.905V16.56h-1.46l-4.723-11.209V16.56H145.134z M158.727,14.918h1.297c0.838,0,1.433-0.162,1.784-0.486
	s0.564-0.798,0.639-1.419c0.074-0.622,0.111-1.372,0.111-2.25V5.432c0-0.851-0.055-1.54-0.162-2.067
	c-0.108-0.526-0.345-0.912-0.71-1.155c-0.364-0.243-0.938-0.364-1.723-0.364h-1.236V14.918z M156.437,16.56V0.142h3.567
	c1.216,0,2.179,0.186,2.888,0.558c0.71,0.371,1.217,0.929,1.521,1.672s0.456,1.669,0.456,2.777v6.04
	c0,1.162-0.152,2.142-0.456,2.938c-0.304,0.798-0.797,1.402-1.479,1.814s-1.598,0.618-2.747,0.618H156.437z"/>
</svg>
