<?xml version="1.0" encoding="utf-8"?>
<!-- Generator: Adobe Illustrator 16.0.0, SVG Export Plug-In . SVG Version: 6.00 Build 0)  -->
<!DOCTYPE svg PUBLIC "-//W3C//DTD SVG 1.1//EN" "http://www.w3.org/Graphics/SVG/1.1/DTD/svg11.dtd">
<svg version="1.1" id="rss" xmlns="http://www.w3.org/2000/svg" xmlns:xlink="http://www.w3.org/1999/xlink" x="0px" y="0px"
	 width="24px" height="24px" viewBox="0 0 24 24" enable-background="new 0 0 24 24" xml:space="preserve">
<path fill="#328CA0" d="M12,0C5.373,0,0,5.373,0,12c0,6.627,5.373,12,12,12c6.627,0,12-5.373,12-12C24,5.373,18.627,0,12,0z
	 M10.522,19.633l1.194-7.761c-0.116-0.022-0.228-0.057-0.333-0.105c-0.116-0.052-0.224-0.119-0.321-0.196
	c-0.34-0.275-0.561-0.698-0.561-1.172c0-0.637,0.396-1.18,0.957-1.398c0.115-0.045,0.238-0.074,0.363-0.09
	C11.88,8.905,11.939,8.9,12.001,8.9c0.061,0,0.119,0.004,0.179,0.011c0.126,0.015,0.248,0.046,0.363,0.09
	C13.104,9.22,13.5,9.764,13.5,10.399c0,0.474-0.218,0.896-0.562,1.172c-0.097,0.08-0.203,0.145-0.319,0.196
	c-0.104,0.046-0.219,0.083-0.333,0.105l1.193,7.761H10.522z M14.321,9.776c-0.121-0.454-0.374-0.86-0.73-1.173
	c-0.33-0.29-0.732-0.485-1.161-0.561c-0.123-0.02-0.249-0.032-0.37-0.035h-0.001h-0.111C11.825,8.008,11.7,8.02,11.576,8.042
	c-0.433,0.08-0.835,0.272-1.161,0.561c-0.354,0.314-0.606,0.719-0.729,1.173c-0.055,0.203-0.083,0.416-0.083,0.626
	c0,0.868,0.466,1.661,1.22,2.088l-0.203,1.317c-0.454-0.183-0.863-0.453-1.217-0.808c-0.671-0.669-1.051-1.554-1.075-2.5H8.33V10.4
	c0-0.981,0.381-1.904,1.076-2.599c0.633-0.632,1.469-1.01,2.36-1.068l0.065-0.002c0.057-0.002,0.117-0.003,0.174-0.003
	c0.059,0,0.114,0,0.171,0.003l0.098,0.004c0.879,0.064,1.704,0.44,2.331,1.066c0.69,0.697,1.074,1.62,1.074,2.599h-0.002v0.004
	c0,0.98-0.382,1.902-1.074,2.595c-0.352,0.353-0.762,0.623-1.217,0.808l-0.203-1.317c0.756-0.429,1.221-1.221,1.221-2.088
	C14.403,10.19,14.376,9.978,14.321,9.776z M18.03,10.404c0,0.811-0.16,1.6-0.473,2.343c-0.308,0.72-0.74,1.364-1.293,1.916
	c-0.557,0.555-1.203,0.991-1.918,1.293c-0.195,0.081-0.392,0.153-0.6,0.217l-0.197-1.276c0.684-0.235,1.295-0.617,1.813-1.135
	c0.9-0.9,1.395-2.093,1.395-3.363s-0.494-2.466-1.395-3.364C14.476,6.146,13.295,5.65,12.04,5.64h-0.081
	c-1.253,0.01-2.434,0.507-3.323,1.395c-0.899,0.898-1.393,2.093-1.393,3.364c0,1.269,0.494,2.462,1.393,3.363
	c0.52,0.521,1.129,0.902,1.813,1.135l-0.197,1.276c-0.21-0.063-0.412-0.138-0.6-0.217c-0.72-0.306-1.366-0.74-1.917-1.293
	c-0.556-0.556-0.99-1.2-1.292-1.916c-0.315-0.743-0.474-1.532-0.474-2.343V10.4c0-0.816,0.158-1.606,0.473-2.348
	c0.307-0.719,0.741-1.365,1.293-1.916c0.556-0.558,1.201-0.992,1.917-1.294c0.745-0.315,1.535-0.475,2.349-0.475
	c0.814,0,1.605,0.16,2.35,0.475c0.719,0.307,1.364,0.742,1.916,1.294c0.556,0.555,0.99,1.2,1.293,1.915
	c0.316,0.745,0.476,1.536,0.471,2.349V10.404z"/>
</svg>
