<?xml version="1.0" encoding="utf-8"?>
<!-- Generator: Adobe Illustrator 16.0.0, SVG Export Plug-In . SVG Version: 6.00 Build 0)  -->
<!DOCTYPE svg PUBLIC "-//W3C//DTD SVG 1.1//EN" "http://www.w3.org/Graphics/SVG/1.1/DTD/svg11.dtd">
<svg version="1.1" id="rss" xmlns="http://www.w3.org/2000/svg" xmlns:xlink="http://www.w3.org/1999/xlink" x="0px" y="0px"
	 width="24px" height="24px" viewBox="0 0 24 24" enable-background="new 0 0 24 24" xml:space="preserve">
<g>
	<circle fill="#328CA0" cx="12" cy="12" r="12"/>
	<path fill="#FFFFFF" d="M12.287,11.872l1.194,7.761h-2.958l1.194-7.761c-0.116-0.022-0.228-0.057-0.333-0.105
		c-0.116-0.052-0.224-0.119-0.321-0.196c-0.34-0.275-0.561-0.698-0.561-1.172c0-0.637,0.396-1.18,0.957-1.398
		c0.115-0.045,0.238-0.074,0.363-0.09c0.059-0.006,0.118-0.011,0.18-0.011c0.061,0,0.119,0.004,0.179,0.011
		c0.126,0.015,0.248,0.046,0.363,0.09c0.562,0.219,0.957,0.763,0.957,1.398c0,0.474-0.218,0.896-0.562,1.172
		c-0.096,0.08-0.203,0.145-0.319,0.196C12.515,11.813,12.401,11.85,12.287,11.872z M15.68,10.4c0-0.979-0.384-1.902-1.075-2.599
		c-0.627-0.626-1.451-1.002-2.33-1.066l-0.098-0.004c-0.057-0.003-0.112-0.003-0.171-0.003c-0.057,0-0.117,0.001-0.174,0.003
		l-0.065,0.002c-0.891,0.058-1.727,0.436-2.36,1.068C8.712,8.496,8.331,9.419,8.331,10.4v0.099H8.329
		c0.024,0.946,0.404,1.831,1.075,2.5c0.354,0.354,0.763,0.625,1.217,0.808l0.203-1.317c-0.754-0.427-1.22-1.22-1.22-2.088
		c0-0.21,0.028-0.423,0.083-0.626c0.123-0.454,0.375-0.859,0.729-1.173c0.326-0.289,0.728-0.481,1.161-0.561
		c0.124-0.022,0.249-0.034,0.372-0.035h0.111h0.001c0.121,0.003,0.247,0.015,0.37,0.035c0.428,0.076,0.831,0.271,1.161,0.561
		c0.356,0.313,0.609,0.719,0.73,1.173c0.055,0.202,0.083,0.414,0.083,0.626c0,0.867-0.466,1.659-1.222,2.088l0.204,1.317
		c0.455-0.185,0.865-0.456,1.217-0.808c0.692-0.693,1.074-1.615,1.074-2.595V10.4L15.68,10.4z M16.267,6.136
		c-0.551-0.552-1.196-0.987-1.916-1.294c-0.743-0.315-1.535-0.475-2.349-0.475c-0.814,0-1.604,0.16-2.349,0.475
		C8.937,5.144,8.292,5.578,7.736,6.136C7.184,6.687,6.75,7.333,6.443,8.052C6.128,8.794,5.97,9.584,5.97,10.4v0.004
		c0,0.811,0.159,1.6,0.474,2.343c0.302,0.716,0.736,1.361,1.292,1.916c0.551,0.553,1.197,0.988,1.917,1.293
		c0.188,0.079,0.39,0.153,0.6,0.217l0.197-1.276c-0.684-0.233-1.293-0.614-1.813-1.136c-0.899-0.899-1.393-2.093-1.393-3.362
		c0-1.271,0.494-2.466,1.393-3.364c0.889-0.888,2.07-1.385,3.323-1.395h0.081c1.255,0.01,2.436,0.506,3.322,1.395
		c0.9,0.898,1.395,2.094,1.395,3.364c0,1.27-0.494,2.463-1.395,3.362c-0.518,0.518-1.128,0.9-1.812,1.136l0.197,1.276
		c0.208-0.063,0.404-0.136,0.6-0.217c0.715-0.302,1.361-0.738,1.917-1.293c0.553-0.552,0.986-1.196,1.293-1.916
		c0.313-0.743,0.473-1.532,0.473-2.343V10.4c0.005-0.813-0.154-1.604-0.471-2.349C17.258,7.336,16.823,6.691,16.267,6.136z"/>
</g>
</svg>
