<?xml version="1.0" encoding="utf-8"?>
<!-- Generator: Adobe Illustrator 16.0.0, SVG Export Plug-In . SVG Version: 6.00 Build 0)  -->
<!DOCTYPE svg PUBLIC "-//W3C//DTD SVG 1.1//EN" "http://www.w3.org/Graphics/SVG/1.1/DTD/svg11.dtd">
<svg version="1.1" id="youtube" xmlns="http://www.w3.org/2000/svg" xmlns:xlink="http://www.w3.org/1999/xlink" x="0px" y="0px"
	 width="24px" height="24px" viewBox="0 0 24 24" enable-background="new 0 0 24 24" xml:space="preserve">
<g>
	<circle fill="#328CA0" cx="12" cy="12" r="12"/>
	<path fill="#FFFFFF" d="M16.164,11.473c-1.586-0.108-6.745-0.108-8.328,0c-1.715,0.116-1.916,1.152-1.93,3.879
		c0.014,2.721,0.213,3.764,1.93,3.881c1.583,0.107,6.742,0.107,8.328,0c1.715-0.117,1.916-1.154,1.93-3.881
		C18.08,12.629,17.88,11.589,16.164,11.473z M8.653,17.984h-0.83v-4.596H6.964v-0.779h2.548v0.779H8.653V17.984z M11.606,17.984
		h-0.737v-0.438c-0.136,0.161-0.277,0.284-0.424,0.368c-0.397,0.229-0.943,0.223-0.943-0.581v-3.314h0.738v3.04
		c0,0.159,0.038,0.267,0.196,0.267c0.144,0,0.344-0.185,0.433-0.296v-3.011h0.737V17.984z M14.445,17.162
		c0,0.49-0.184,0.871-0.674,0.871c-0.271,0-0.495-0.099-0.702-0.354v0.306h-0.743v-5.375h0.743v1.73
		c0.167-0.203,0.393-0.372,0.655-0.372c0.543,0,0.721,0.458,0.721,0.995V17.162z M17.168,16.095H15.76v0.748
		c0,0.297,0.025,0.554,0.322,0.554c0.311,0,0.33-0.209,0.33-0.554v-0.275h0.756v0.298c0,0.764-0.326,1.225-1.103,1.225
		c-0.704,0-1.063-0.512-1.063-1.225v-1.779c0-0.689,0.453-1.168,1.119-1.168c0.707,0,1.047,0.451,1.047,1.168V16.095z
		 M16.412,15.078v0.401H15.76v-0.401c0-0.273,0.057-0.465,0.33-0.465C16.354,14.613,16.412,14.811,16.412,15.078z M13.605,14.704
		c0.055,0.069,0.08,0.17,0.08,0.304v2.047c0,0.126-0.021,0.217-0.064,0.273c-0.08,0.106-0.257,0.102-0.376,0.041
		c-0.058-0.028-0.114-0.076-0.176-0.141V14.76c0.052-0.055,0.101-0.096,0.152-0.121C13.352,14.574,13.518,14.586,13.605,14.704z
		 M13.311,9.647V6.168h0.773v3.19c0,0.168,0.042,0.281,0.207,0.281c0.15,0,0.361-0.194,0.455-0.312v-3.16h0.773v4.164h-0.773V9.871
		c-0.334,0.399-0.66,0.521-0.896,0.521C13.436,10.393,13.311,10.06,13.311,9.647z M10.406,9.292c0,0.735,0.384,1.117,1.134,1.117
		c0.622,0,1.112-0.416,1.112-1.117v-2.04c0-0.651-0.485-1.118-1.112-1.118c-0.682,0-1.134,0.451-1.134,1.118V9.292z M11.203,7.32
		c0-0.228,0.104-0.396,0.322-0.396c0.237,0,0.339,0.163,0.339,0.396v1.937c0,0.227-0.116,0.395-0.324,0.395
		c-0.213,0-0.337-0.175-0.337-0.395V7.32z M8.56,8.042L7.522,4.687H8.4l0.601,2.257l0.558-2.257h0.888L9.43,8.042v2.29H8.56V8.042z"
		/>
</g>
</svg>
