<?xml version="1.0" encoding="utf-8"?>
<!-- Generator: Adobe Illustrator 16.0.0, SVG Export Plug-In . SVG Version: 6.00 Build 0)  -->
<!DOCTYPE svg PUBLIC "-//W3C//DTD SVG 1.1//EN" "http://www.w3.org/Graphics/SVG/1.1/DTD/svg11.dtd">
<svg version="1.1" id="youtube" xmlns="http://www.w3.org/2000/svg" xmlns:xlink="http://www.w3.org/1999/xlink" x="0px" y="0px"
	 width="24px" height="24px" viewBox="0 0 24 24" enable-background="new 0 0 24 24" xml:space="preserve">
<path fill="#328CA0" d="M11.203,9.257V7.32c0-0.228,0.104-0.396,0.322-0.396c0.237,0,0.339,0.163,0.339,0.396v1.937
	c0,0.227-0.116,0.395-0.324,0.395C11.327,9.652,11.203,9.477,11.203,9.257z M9.512,12.609H6.964v0.779h0.859v4.596h0.83v-4.596
	h0.859V12.609z M10.869,17.029c-0.089,0.111-0.289,0.297-0.433,0.297c-0.158,0-0.196-0.108-0.196-0.268V14.02H9.502v3.313
	c0,0.804,0.546,0.81,0.943,0.581c0.147-0.084,0.288-0.207,0.424-0.368v0.438h0.737V14.02h-0.737V17.029z M14.445,14.963v2.199
	c0,0.49-0.185,0.871-0.674,0.871c-0.271,0-0.496-0.1-0.703-0.354v0.305h-0.742v-5.375h0.742v1.73
	c0.168-0.203,0.394-0.372,0.656-0.372C14.268,13.968,14.445,14.426,14.445,14.963z M13.686,15.008c0-0.134-0.025-0.234-0.08-0.304
	c-0.088-0.118-0.254-0.13-0.385-0.065c-0.051,0.025-0.1,0.066-0.152,0.121v2.469c0.063,0.064,0.119,0.112,0.177,0.141
	c0.119,0.061,0.296,0.064,0.376-0.041c0.043-0.057,0.064-0.146,0.064-0.273V15.008z M17.168,15.087v1.009H15.76v0.747
	c0,0.298,0.025,0.554,0.322,0.554c0.311,0,0.33-0.209,0.33-0.554v-0.274h0.756v0.298c0,0.764-0.326,1.225-1.104,1.225
	c-0.703,0-1.063-0.512-1.063-1.225v-1.779c0-0.688,0.453-1.168,1.119-1.168C16.828,13.919,17.168,14.37,17.168,15.087z
	 M16.412,15.078c0-0.268-0.059-0.465-0.322-0.465c-0.273,0-0.33,0.191-0.33,0.465v0.4h0.652V15.078z M24,12c0,6.627-5.373,12-12,12
	C5.373,24,0,18.627,0,12C0,5.373,5.373,0,12,0C18.627,0,24,5.373,24,12z M13.311,9.647c0,0.413,0.125,0.746,0.539,0.745
	c0.236,0,0.563-0.122,0.896-0.521v0.46h0.773V6.167h-0.773v3.16c-0.094,0.118-0.305,0.312-0.455,0.312
	c-0.165,0-0.207-0.113-0.207-0.281v-3.19h-0.773V9.647z M10.406,7.252v2.04c0,0.735,0.384,1.117,1.134,1.117
	c0.622,0,1.112-0.416,1.112-1.117v-2.04c0-0.651-0.485-1.118-1.112-1.118C10.858,6.134,10.406,6.585,10.406,7.252z M7.522,4.687
	L8.56,8.042v2.29h0.87v-2.29l1.017-3.355H9.559L9.001,6.944L8.4,4.687H7.522z M18.094,15.352c-0.014-2.723-0.214-3.763-1.93-3.878
	c-1.586-0.108-6.745-0.108-8.328,0c-1.715,0.116-1.916,1.152-1.93,3.878c0.014,2.721,0.213,3.765,1.93,3.881
	c1.583,0.107,6.742,0.107,8.328,0C17.879,19.116,18.08,18.079,18.094,15.352z"/>
</svg>
